<svg width="2131" height="1984" viewBox="0 0 2131 1984" fill="none" xmlns="http://www.w3.org/2000/svg">
<path d="M432.791 343L545.569 238.253C550.922 233.29 553.933 226.556 553.939 219.532C553.946 212.508 550.948 205.768 545.605 200.797C540.262 195.826 533.012 193.03 525.449 193.023C517.886 193.017 510.63 195.802 505.278 200.764L392.5 305.511L279.722 200.764C274.37 195.793 267.11 193 259.541 193C251.971 193 244.712 195.793 239.359 200.764C234.007 205.735 231 212.478 231 219.508C231 226.539 234.007 233.281 239.359 238.253L352.137 343L239.359 447.747C234.007 452.719 231 459.461 231 466.492C231 473.522 234.007 480.265 239.359 485.236C244.712 490.207 251.971 493 259.541 493C267.11 493 274.37 490.207 279.722 485.236L392.5 380.489L505.278 485.236C510.63 490.207 517.89 493 525.459 493C533.029 493 540.288 490.207 545.641 485.236C550.993 480.265 554 473.522 554 466.492C554 459.461 550.993 452.719 545.641 447.747L432.791 343Z" fill="white" fill-opacity="0.84"/>
<path d="M1105.79 343L1218.57 238.253C1223.92 233.29 1226.93 226.556 1226.94 219.532C1226.95 212.508 1223.95 205.768 1218.61 200.797C1213.26 195.826 1206.01 193.03 1198.45 193.023C1190.89 193.017 1183.63 195.802 1178.28 200.764L1065.5 305.511L952.722 200.764C947.37 195.793 940.11 193 932.541 193C924.971 193 917.712 195.793 912.359 200.764C907.007 205.735 904 212.478 904 219.508C904 226.539 907.007 233.281 912.359 238.253L1025.14 343L912.359 447.747C907.007 452.719 904 459.461 904 466.492C904 473.522 907.007 480.265 912.359 485.236C917.712 490.207 924.971 493 932.541 493C940.11 493 947.37 490.207 952.722 485.236L1065.5 380.489L1178.28 485.236C1183.63 490.207 1190.89 493 1198.46 493C1206.03 493 1213.29 490.207 1218.64 485.236C1223.99 480.265 1227 473.522 1227 466.492C1227 459.461 1223.99 452.719 1218.64 447.747L1105.79 343Z" fill="white" fill-opacity="0.84"/>
<path d="M1778.79 343L1891.57 238.253C1896.92 233.29 1899.93 226.556 1899.94 219.532C1899.95 212.508 1896.95 205.768 1891.61 200.797C1886.26 195.826 1879.01 193.03 1871.45 193.023C1863.89 193.017 1856.63 195.802 1851.28 200.764L1738.5 305.511L1625.72 200.764C1620.37 195.793 1613.11 193 1605.54 193C1597.97 193 1590.71 195.793 1585.36 200.764C1580.01 205.735 1577 212.478 1577 219.508C1577 226.539 1580.01 233.281 1585.36 238.253L1698.14 343L1585.36 447.747C1580.01 452.719 1577 459.461 1577 466.492C1577 473.522 1580.01 480.265 1585.36 485.236C1590.71 490.207 1597.97 493 1605.54 493C1613.11 493 1620.37 490.207 1625.72 485.236L1738.5 380.489L1851.28 485.236C1856.63 490.207 1863.89 493 1871.46 493C1879.03 493 1886.29 490.207 1891.64 485.236C1896.99 480.265 1900 473.522 1900 466.492C1900 459.461 1896.99 452.719 1891.64 447.747L1778.79 343Z" fill="white" fill-opacity="0.84"/>
<path d="M716.768 819.184C802.446 819.184 871.901 750.894 871.901 666.655C871.901 582.415 802.446 514.126 716.768 514.126C631.091 514.126 561.635 582.415 561.635 666.655C561.635 750.894 631.091 819.184 716.768 819.184Z" stroke="white" stroke-opacity="0.84" stroke-width="32" stroke-linecap="round" stroke-linejoin="round"/>
<path d="M1416.77 819.184C1502.45 819.184 1571.9 750.894 1571.9 666.655C1571.9 582.415 1502.45 514.126 1416.77 514.126C1331.09 514.126 1261.64 582.415 1261.64 666.655C1261.64 750.894 1331.09 819.184 1416.77 819.184Z" stroke="white" stroke-opacity="0.84" stroke-width="32" stroke-linecap="round" stroke-linejoin="round"/>
<path d="M432.791 992L545.569 887.253C550.922 882.29 553.933 875.556 553.939 868.532C553.946 861.508 550.948 854.768 545.605 849.797C540.262 844.826 533.012 842.03 525.449 842.023C517.886 842.017 510.63 844.802 505.278 849.764L392.5 954.511L279.722 849.764C274.37 844.793 267.11 842 259.541 842C251.971 842 244.712 844.793 239.359 849.764C234.007 854.735 231 861.478 231 868.508C231 875.539 234.007 882.281 239.359 887.253L352.137 992L239.359 1096.75C234.007 1101.72 231 1108.46 231 1115.49C231 1122.52 234.007 1129.26 239.359 1134.24C244.712 1139.21 251.971 1142 259.541 1142C267.11 1142 274.37 1139.21 279.722 1134.24L392.5 1029.49L505.278 1134.24C510.63 1139.21 517.89 1142 525.459 1142C533.029 1142 540.288 1139.21 545.641 1134.24C550.993 1129.26 554 1122.52 554 1115.49C554 1108.46 550.993 1101.72 545.641 1096.75L432.791 992Z" fill="white" fill-opacity="0.84"/>
<path d="M1105.79 992L1218.57 887.253C1223.92 882.29 1226.93 875.556 1226.94 868.532C1226.95 861.508 1223.95 854.768 1218.61 849.797C1213.26 844.826 1206.01 842.03 1198.45 842.023C1190.89 842.017 1183.63 844.802 1178.28 849.764L1065.5 954.511L952.722 849.764C947.37 844.793 940.11 842 932.541 842C924.971 842 917.712 844.793 912.359 849.764C907.007 854.735 904 861.478 904 868.508C904 875.539 907.007 882.281 912.359 887.253L1025.14 992L912.359 1096.75C907.007 1101.72 904 1108.46 904 1115.49C904 1122.52 907.007 1129.26 912.359 1134.24C917.712 1139.21 924.971 1142 932.541 1142C940.11 1142 947.37 1139.21 952.722 1134.24L1065.5 1029.49L1178.28 1134.24C1183.63 1139.21 1190.89 1142 1198.46 1142C1206.03 1142 1213.29 1139.21 1218.64 1134.24C1223.99 1129.26 1227 1122.52 1227 1115.49C1227 1108.46 1223.99 1101.72 1218.64 1096.75L1105.79 992Z" fill="white" fill-opacity="0.84"/>
<path d="M1778.79 992L1891.57 887.253C1896.92 882.29 1899.93 875.556 1899.94 868.532C1899.95 861.508 1896.95 854.768 1891.61 849.797C1886.26 844.826 1879.01 842.03 1871.45 842.023C1863.89 842.017 1856.63 844.802 1851.28 849.764L1738.5 954.511L1625.72 849.764C1620.37 844.793 1613.11 842 1605.54 842C1597.97 842 1590.71 844.793 1585.36 849.764C1580.01 854.735 1577 861.478 1577 868.508C1577 875.539 1580.01 882.281 1585.36 887.253L1698.14 992L1585.36 1096.75C1580.01 1101.72 1577 1108.46 1577 1115.49C1577 1122.52 1580.01 1129.26 1585.36 1134.24C1590.71 1139.21 1597.97 1142 1605.54 1142C1613.11 1142 1620.37 1139.21 1625.72 1134.24L1738.5 1029.49L1851.28 1134.24C1856.63 1139.21 1863.89 1142 1871.46 1142C1879.03 1142 1886.29 1139.21 1891.64 1134.24C1896.99 1129.26 1900 1122.52 1900 1115.49C1900 1108.46 1896.99 1101.72 1891.64 1096.75L1778.79 992Z" fill="white" fill-opacity="0.84"/>
<path d="M716.768 1468.18C802.446 1468.18 871.901 1399.89 871.901 1315.65C871.901 1231.42 802.446 1163.13 716.768 1163.13C631.091 1163.13 561.635 1231.42 561.635 1315.65C561.635 1399.89 631.091 1468.18 716.768 1468.18Z" stroke="white" stroke-opacity="0.84" stroke-width="32" stroke-linecap="round" stroke-linejoin="round"/>
<path d="M1416.77 1468.18C1502.45 1468.18 1571.9 1399.89 1571.9 1315.65C1571.9 1231.42 1502.45 1163.13 1416.77 1163.13C1331.09 1163.13 1261.64 1231.42 1261.64 1315.65C1261.64 1399.89 1331.09 1468.18 1416.77 1468.18Z" stroke="white" stroke-opacity="0.84" stroke-width="32" stroke-linecap="round" stroke-linejoin="round"/>
<path d="M432.791 1641L545.569 1536.25C550.922 1531.29 553.933 1524.56 553.939 1517.53C553.946 1510.51 550.948 1503.77 545.605 1498.8C540.262 1493.83 533.012 1491.03 525.449 1491.02C517.886 1491.02 510.63 1493.8 505.278 1498.76L392.5 1603.51L279.722 1498.76C274.37 1493.79 267.11 1491 259.541 1491C251.971 1491 244.712 1493.79 239.359 1498.76C234.007 1503.74 231 1510.48 231 1517.51C231 1524.54 234.007 1531.28 239.359 1536.25L352.137 1641L239.359 1745.75C234.007 1750.72 231 1757.46 231 1764.49C231 1771.52 234.007 1778.26 239.359 1783.24C244.712 1788.21 251.971 1791 259.541 1791C267.11 1791 274.37 1788.21 279.722 1783.24L392.5 1678.49L505.278 1783.24C510.63 1788.21 517.89 1791 525.459 1791C533.029 1791 540.288 1788.21 545.641 1783.24C550.993 1778.26 554 1771.52 554 1764.49C554 1757.46 550.993 1750.72 545.641 1745.75L432.791 1641Z" fill="white" fill-opacity="0.84"/>
<path d="M1105.79 1641L1218.57 1536.25C1223.92 1531.29 1226.93 1524.56 1226.94 1517.53C1226.95 1510.51 1223.95 1503.77 1218.61 1498.8C1213.26 1493.83 1206.01 1491.03 1198.45 1491.02C1190.89 1491.02 1183.63 1493.8 1178.28 1498.76L1065.5 1603.51L952.722 1498.76C947.37 1493.79 940.11 1491 932.541 1491C924.971 1491 917.712 1493.79 912.359 1498.76C907.007 1503.74 904 1510.48 904 1517.51C904 1524.54 907.007 1531.28 912.359 1536.25L1025.14 1641L912.359 1745.75C907.007 1750.72 904 1757.46 904 1764.49C904 1771.52 907.007 1778.26 912.359 1783.24C917.712 1788.21 924.971 1791 932.541 1791C940.11 1791 947.37 1788.21 952.722 1783.24L1065.5 1678.49L1178.28 1783.24C1183.63 1788.21 1190.89 1791 1198.46 1791C1206.03 1791 1213.29 1788.21 1218.64 1783.24C1223.99 1778.26 1227 1771.52 1227 1764.49C1227 1757.46 1223.99 1750.72 1218.64 1745.75L1105.79 1641Z" fill="white" fill-opacity="0.84"/>
<path d="M1778.79 1641L1891.57 1536.25C1896.92 1531.29 1899.93 1524.56 1899.94 1517.53C1899.95 1510.51 1896.95 1503.77 1891.61 1498.8C1886.26 1493.83 1879.01 1491.03 1871.45 1491.02C1863.89 1491.02 1856.63 1493.8 1851.28 1498.76L1738.5 1603.51L1625.72 1498.76C1620.37 1493.79 1613.11 1491 1605.54 1491C1597.97 1491 1590.71 1493.79 1585.36 1498.76C1580.01 1503.74 1577 1510.48 1577 1517.51C1577 1524.54 1580.01 1531.28 1585.36 1536.25L1698.14 1641L1585.36 1745.75C1580.01 1750.72 1577 1757.46 1577 1764.49C1577 1771.52 1580.01 1778.26 1585.36 1783.24C1590.71 1788.21 1597.97 1791 1605.54 1791C1613.11 1791 1620.37 1788.21 1625.72 1783.24L1738.5 1678.49L1851.28 1783.24C1856.63 1788.21 1863.89 1791 1871.46 1791C1879.03 1791 1886.29 1788.21 1891.64 1783.24C1896.99 1778.26 1900 1771.52 1900 1764.49C1900 1757.46 1896.99 1750.72 1891.64 1745.75L1778.79 1641Z" fill="white" fill-opacity="0.84"/>
</svg>
