<svg width="1869" height="1799" viewBox="0 0 1869 1799" fill="none" xmlns="http://www.w3.org/2000/svg">
<path d="M301.791 250.5L414.569 145.753C419.922 140.79 422.933 134.056 422.939 127.032C422.946 120.008 419.948 113.268 414.605 108.297C409.262 103.326 402.012 100.53 394.449 100.523C386.886 100.517 379.63 103.302 374.278 108.264L261.5 213.011L148.722 108.264C143.37 103.293 136.11 100.5 128.541 100.5C120.971 100.5 113.712 103.293 108.359 108.264C103.007 113.235 100 119.978 100 127.008C100 134.039 103.007 140.781 108.359 145.753L221.137 250.5L108.359 355.247C103.007 360.219 100 366.961 100 373.992C100 381.022 103.007 387.765 108.359 392.736C113.712 397.707 120.971 400.5 128.541 400.5C136.11 400.5 143.37 397.707 148.722 392.736L261.5 287.989L374.278 392.736C379.63 397.707 386.89 400.5 394.459 400.5C402.029 400.5 409.288 397.707 414.641 392.736C419.993 387.765 423 381.022 423 373.992C423 366.961 419.993 360.219 414.641 355.247L301.791 250.5Z" fill="#eeeeee4b" fill-opacity="0.84"/>
<path d="M974.791 250.5L1087.57 145.753C1092.92 140.79 1095.93 134.056 1095.94 127.032C1095.95 120.008 1092.95 113.268 1087.61 108.297C1082.26 103.326 1075.01 100.53 1067.45 100.523C1059.89 100.517 1052.63 103.302 1047.28 108.264L934.5 213.011L821.722 108.264C816.37 103.293 809.11 100.5 801.541 100.5C793.971 100.5 786.712 103.293 781.359 108.264C776.007 113.235 773 119.978 773 127.008C773 134.039 776.007 140.781 781.359 145.753L894.137 250.5L781.359 355.247C776.007 360.219 773 366.961 773 373.992C773 381.022 776.007 387.765 781.359 392.736C786.712 397.707 793.971 400.5 801.541 400.5C809.11 400.5 816.37 397.707 821.722 392.736L934.5 287.989L1047.28 392.736C1052.63 397.707 1059.89 400.5 1067.46 400.5C1075.03 400.5 1082.29 397.707 1087.64 392.736C1092.99 387.765 1096 381.022 1096 373.992C1096 366.961 1092.99 360.219 1087.64 355.247L974.791 250.5Z" fill="#eeeeee4b" fill-opacity="0.84"/>
<path d="M1647.79 250.5L1760.57 145.753C1765.92 140.79 1768.93 134.056 1768.94 127.032C1768.95 120.008 1765.95 113.268 1760.61 108.297C1755.26 103.326 1748.01 100.53 1740.45 100.523C1732.89 100.517 1725.63 103.302 1720.28 108.264L1607.5 213.011L1494.72 108.264C1489.37 103.293 1482.11 100.5 1474.54 100.5C1466.97 100.5 1459.71 103.293 1454.36 108.264C1449.01 113.235 1446 119.978 1446 127.008C1446 134.039 1449.01 140.781 1454.36 145.753L1567.14 250.5L1454.36 355.247C1449.01 360.219 1446 366.961 1446 373.992C1446 381.022 1449.01 387.765 1454.36 392.736C1459.71 397.707 1466.97 400.5 1474.54 400.5C1482.11 400.5 1489.37 397.707 1494.72 392.736L1607.5 287.989L1720.28 392.736C1725.63 397.707 1732.89 400.5 1740.46 400.5C1748.03 400.5 1755.29 397.707 1760.64 392.736C1765.99 387.765 1769 381.022 1769 373.992C1769 366.961 1765.99 360.219 1760.64 355.247L1647.79 250.5Z" fill="#eeeeee4b" fill-opacity="0.84"/>
<path d="M585.768 726.684C671.446 726.684 740.901 658.394 740.901 574.155C740.901 489.915 671.446 421.626 585.768 421.626C500.091 421.626 430.635 489.915 430.635 574.155C430.635 658.394 500.091 726.684 585.768 726.684Z" stroke="#eeeeee4b" stroke-opacity="0.84" stroke-width="32" stroke-linecap="round" stroke-linejoin="round"/>
<path d="M1285.77 726.684C1371.45 726.684 1440.9 658.394 1440.9 574.155C1440.9 489.915 1371.45 421.626 1285.77 421.626C1200.09 421.626 1130.64 489.915 1130.64 574.155C1130.64 658.394 1200.09 726.684 1285.77 726.684Z" stroke="#eeeeee4b" stroke-opacity="0.84" stroke-width="32" stroke-linecap="round" stroke-linejoin="round"/>
<path d="M301.791 899.5L414.569 794.753C419.922 789.79 422.933 783.056 422.939 776.032C422.946 769.008 419.948 762.268 414.605 757.297C409.262 752.326 402.012 749.53 394.449 749.523C386.886 749.517 379.63 752.302 374.278 757.264L261.5 862.011L148.722 757.264C143.37 752.293 136.11 749.5 128.541 749.5C120.971 749.5 113.712 752.293 108.359 757.264C103.007 762.235 100 768.978 100 776.008C100 783.039 103.007 789.781 108.359 794.753L221.137 899.5L108.359 1004.25C103.007 1009.22 100 1015.96 100 1022.99C100 1030.02 103.007 1036.76 108.359 1041.74C113.712 1046.71 120.971 1049.5 128.541 1049.5C136.11 1049.5 143.37 1046.71 148.722 1041.74L261.5 936.989L374.278 1041.74C379.63 1046.71 386.89 1049.5 394.459 1049.5C402.029 1049.5 409.288 1046.71 414.641 1041.74C419.993 1036.76 423 1030.02 423 1022.99C423 1015.96 419.993 1009.22 414.641 1004.25L301.791 899.5Z" fill="#eeeeee4b" fill-opacity="0.84"/>
<path d="M974.791 899.5L1087.57 794.753C1092.92 789.79 1095.93 783.056 1095.94 776.032C1095.95 769.008 1092.95 762.268 1087.61 757.297C1082.26 752.326 1075.01 749.53 1067.45 749.523C1059.89 749.517 1052.63 752.302 1047.28 757.264L934.5 862.011L821.722 757.264C816.37 752.293 809.11 749.5 801.541 749.5C793.971 749.5 786.712 752.293 781.359 757.264C776.007 762.235 773 768.978 773 776.008C773 783.039 776.007 789.781 781.359 794.753L894.137 899.5L781.359 1004.25C776.007 1009.22 773 1015.96 773 1022.99C773 1030.02 776.007 1036.76 781.359 1041.74C786.712 1046.71 793.971 1049.5 801.541 1049.5C809.11 1049.5 816.37 1046.71 821.722 1041.74L934.5 936.989L1047.28 1041.74C1052.63 1046.71 1059.89 1049.5 1067.46 1049.5C1075.03 1049.5 1082.29 1046.71 1087.64 1041.74C1092.99 1036.76 1096 1030.02 1096 1022.99C1096 1015.96 1092.99 1009.22 1087.64 1004.25L974.791 899.5Z" fill="#eeeeee4b" fill-opacity="0.84"/>
<path d="M1647.79 899.5L1760.57 794.753C1765.92 789.79 1768.93 783.056 1768.94 776.032C1768.95 769.008 1765.95 762.268 1760.61 757.297C1755.26 752.326 1748.01 749.53 1740.45 749.523C1732.89 749.517 1725.63 752.302 1720.28 757.264L1607.5 862.011L1494.72 757.264C1489.37 752.293 1482.11 749.5 1474.54 749.5C1466.97 749.5 1459.71 752.293 1454.36 757.264C1449.01 762.235 1446 768.978 1446 776.008C1446 783.039 1449.01 789.781 1454.36 794.753L1567.14 899.5L1454.36 1004.25C1449.01 1009.22 1446 1015.96 1446 1022.99C1446 1030.02 1449.01 1036.76 1454.36 1041.74C1459.71 1046.71 1466.97 1049.5 1474.54 1049.5C1482.11 1049.5 1489.37 1046.71 1494.72 1041.74L1607.5 936.989L1720.28 1041.74C1725.63 1046.71 1732.89 1049.5 1740.46 1049.5C1748.03 1049.5 1755.29 1046.71 1760.64 1041.74C1765.99 1036.76 1769 1030.02 1769 1022.99C1769 1015.96 1765.99 1009.22 1760.64 1004.25L1647.79 899.5Z" fill="#eeeeee4b" fill-opacity="0.84"/>
<path d="M585.768 1375.68C671.446 1375.68 740.901 1307.39 740.901 1223.16C740.901 1138.92 671.446 1070.63 585.768 1070.63C500.091 1070.63 430.635 1138.92 430.635 1223.16C430.635 1307.39 500.091 1375.68 585.768 1375.68Z" stroke="#eeeeee4b" stroke-opacity="0.84" stroke-width="32" stroke-linecap="round" stroke-linejoin="round"/>
<path d="M1285.77 1375.68C1371.45 1375.68 1440.9 1307.39 1440.9 1223.16C1440.9 1138.92 1371.45 1070.63 1285.77 1070.63C1200.09 1070.63 1130.64 1138.92 1130.64 1223.16C1130.64 1307.39 1200.09 1375.68 1285.77 1375.68Z" stroke="#eeeeee4b" stroke-opacity="0.84" stroke-width="32" stroke-linecap="round" stroke-linejoin="round"/>
<path d="M301.791 1548.5L414.569 1443.75C419.922 1438.79 422.933 1432.06 422.939 1425.03C422.946 1418.01 419.948 1411.27 414.605 1406.3C409.262 1401.33 402.012 1398.53 394.449 1398.52C386.886 1398.52 379.63 1401.3 374.278 1406.26L261.5 1511.01L148.722 1406.26C143.37 1401.29 136.11 1398.5 128.541 1398.5C120.971 1398.5 113.712 1401.29 108.359 1406.26C103.007 1411.24 100 1417.98 100 1425.01C100 1432.04 103.007 1438.78 108.359 1443.75L221.137 1548.5L108.359 1653.25C103.007 1658.22 100 1664.96 100 1671.99C100 1679.02 103.007 1685.76 108.359 1690.74C113.712 1695.71 120.971 1698.5 128.541 1698.5C136.11 1698.5 143.37 1695.71 148.722 1690.74L261.5 1585.99L374.278 1690.74C379.63 1695.71 386.89 1698.5 394.459 1698.5C402.029 1698.5 409.288 1695.71 414.641 1690.74C419.993 1685.76 423 1679.02 423 1671.99C423 1664.96 419.993 1658.22 414.641 1653.25L301.791 1548.5Z" fill="#eeeeee4b" fill-opacity="0.84"/>
<path d="M974.791 1548.5L1087.57 1443.75C1092.92 1438.79 1095.93 1432.06 1095.94 1425.03C1095.95 1418.01 1092.95 1411.27 1087.61 1406.3C1082.26 1401.33 1075.01 1398.53 1067.45 1398.52C1059.89 1398.52 1052.63 1401.3 1047.28 1406.26L934.5 1511.01L821.722 1406.26C816.37 1401.29 809.11 1398.5 801.541 1398.5C793.971 1398.5 786.712 1401.29 781.359 1406.26C776.007 1411.24 773 1417.98 773 1425.01C773 1432.04 776.007 1438.78 781.359 1443.75L894.137 1548.5L781.359 1653.25C776.007 1658.22 773 1664.96 773 1671.99C773 1679.02 776.007 1685.76 781.359 1690.74C786.712 1695.71 793.971 1698.5 801.541 1698.5C809.11 1698.5 816.37 1695.71 821.722 1690.74L934.5 1585.99L1047.28 1690.74C1052.63 1695.71 1059.89 1698.5 1067.46 1698.5C1075.03 1698.5 1082.29 1695.71 1087.64 1690.74C1092.99 1685.76 1096 1679.02 1096 1671.99C1096 1664.96 1092.99 1658.22 1087.64 1653.25L974.791 1548.5Z" fill="#eeeeee4b" fill-opacity="0.84"/>
<path d="M1647.79 1548.5L1760.57 1443.75C1765.92 1438.79 1768.93 1432.06 1768.94 1425.03C1768.95 1418.01 1765.95 1411.27 1760.61 1406.3C1755.26 1401.33 1748.01 1398.53 1740.45 1398.52C1732.89 1398.52 1725.63 1401.3 1720.28 1406.26L1607.5 1511.01L1494.72 1406.26C1489.37 1401.29 1482.11 1398.5 1474.54 1398.5C1466.97 1398.5 1459.71 1401.29 1454.36 1406.26C1449.01 1411.24 1446 1417.98 1446 1425.01C1446 1432.04 1449.01 1438.78 1454.36 1443.75L1567.14 1548.5L1454.36 1653.25C1449.01 1658.22 1446 1664.96 1446 1671.99C1446 1679.02 1449.01 1685.76 1454.36 1690.74C1459.71 1695.71 1466.97 1698.5 1474.54 1698.5C1482.11 1698.5 1489.37 1695.71 1494.72 1690.74L1607.5 1585.99L1720.28 1690.74C1725.63 1695.71 1732.89 1698.5 1740.46 1698.5C1748.03 1698.5 1755.29 1695.71 1760.64 1690.74C1765.99 1685.76 1769 1679.02 1769 1671.99C1769 1664.96 1765.99 1658.22 1760.64 1653.25L1647.79 1548.5Z" fill="#eeeeee4b" fill-opacity="0.84"/>
</svg>
