<svg width="329" height="334" viewBox="0 0 329 334" fill="none" xmlns="http://www.w3.org/2000/svg">
<path d="M204.791 167L317.569 62.2527C322.922 57.2901 325.933 50.556 325.939 43.5318C325.946 36.5075 322.948 29.7685 317.605 24.7972C312.262 19.8259 305.012 17.0296 297.449 17.0234C289.886 17.0172 282.63 19.8016 277.278 24.7641L164.5 129.511L51.722 24.7641C46.3696 19.7928 39.1102 17 31.5407 17C23.9712 17 16.7118 19.7928 11.3594 24.7641C6.00696 29.7354 3 36.4779 3 43.5084C3 50.5389 6.00696 57.2814 11.3594 62.2527L124.137 167L11.3594 271.747C6.00696 276.719 3 283.461 3 290.492C3 297.522 6.00696 304.265 11.3594 309.236C16.7118 314.207 23.9712 317 31.5407 317C39.1102 317 46.3696 314.207 51.722 309.236L164.5 204.489L277.278 309.236C282.63 314.207 289.89 317 297.459 317C305.029 317 312.288 314.207 317.641 309.236C322.993 304.265 326 297.522 326 290.492C326 283.461 322.993 276.719 317.641 271.747L204.791 167Z" fill="white"/>
<path d="M165 279.5C226.718 279.5 276.75 229.132 276.75 167C276.75 104.868 226.718 54.5 165 54.5C103.282 54.5 53.25 104.868 53.25 167C53.25 229.132 103.282 279.5 165 279.5Z" stroke="white" stroke-width="32" stroke-linecap="round" stroke-linejoin="round"/>
</svg>
